<svg width="41" height="40" viewBox="0 0 41 40" fill="none" xmlns="http://www.w3.org/2000/svg">
<path d="M20.3333 3.775C13.8833 3.775 8.66666 8.99167 8.66666 15.4417C8.66666 22.3917 16.0333 31.975 19.0667 35.625C19.7333 36.425 20.95 36.425 21.6167 35.625C24.6333 31.975 32 22.3917 32 15.4417C32 8.99167 26.7833 3.775 20.3333 3.775Z" fill="#EB5757"/>
<path fill-rule="evenodd" clip-rule="evenodd" d="M20.8889 11.9444H24.2222C25.45 11.9444 26.4444 12.9389 26.4444 14.1667V18.6111C26.4444 18.9167 26.1944 19.1667 25.8889 19.1667C25.5833 19.1667 25.3333 18.9167 25.3333 18.6111V17.5H15.3333V18.6111C15.3333 18.9167 15.0833 19.1667 14.7777 19.1667C14.4722 19.1667 14.2222 18.9167 14.2222 18.6111V11.3889C14.2222 11.0833 14.4722 10.8333 14.7777 10.8333C15.0833 10.8333 15.3333 11.0833 15.3333 11.3889V15.8333H19.7777V13.0555C19.7777 12.4444 20.2777 11.9444 20.8889 11.9444ZM19.2222 13.6111C19.2222 14.5333 18.4777 15.2778 17.5555 15.2778C16.6333 15.2778 15.8889 14.5333 15.8889 13.6111C15.8889 12.6889 16.6333 11.9444 17.5555 11.9444C18.4777 11.9444 19.2222 12.6889 19.2222 13.6111Z" fill="#F2F2F2"/>
</svg>
