<svg width="40" height="40" viewBox="0 0 40 40" fill="none" xmlns="http://www.w3.org/2000/svg">
<path d="M20 3.775C13.55 3.775 8.33333 8.99167 8.33333 15.4417C8.33333 22.3917 15.7 31.975 18.7333 35.625C19.4 36.425 20.6167 36.425 21.2833 35.625C24.3 31.975 31.6667 22.3917 31.6667 15.4417C31.6667 8.99167 26.45 3.775 20 3.775Z" fill="#219653"/>
<path fill-rule="evenodd" clip-rule="evenodd" d="M24.3608 13.9678C23.4775 14.8512 22.283 15.1289 21.433 14.7345L20.6163 15.5512L24.0497 18.9845C24.2663 19.2012 24.2663 19.5512 24.0497 19.7678C23.833 19.9845 23.483 19.9845 23.2663 19.7678L19.833 16.3345L16.3941 19.7623C16.1775 19.9789 15.8275 19.9789 15.6108 19.7623C15.3941 19.5456 15.3941 19.1956 15.6108 18.9789L20.6441 13.9456C20.2497 13.0956 20.5275 11.9012 21.4108 11.0178C22.4775 9.95671 23.9997 9.75671 24.8108 10.5678C25.6275 11.3845 25.4219 12.9067 24.3608 13.9678ZM19.2386 14.1678L17.6664 15.74L15.3386 13.4178C14.6552 12.7289 14.5108 11.7123 14.9052 10.8845C15.0719 10.54 15.533 10.4678 15.7997 10.7345L19.2386 14.1678Z" fill="#F2F2F2"/>
</svg>
